<?xml version="1.0" encoding="UTF-8"?>
<svg width="110px" height="5px" viewBox="0 0 110 5" version="1.1" xmlns="http://www.w3.org/2000/svg" xmlns:xlink="http://www.w3.org/1999/xlink">
    <title>Path 2</title>
    <defs>
        <linearGradient x1="0%" y1="50%" x2="100%" y2="50%" id="linearGradient-1">
            <stop stop-color="#3D923A" offset="0%"></stop>
            <stop stop-color="#BEFB80" offset="100%"></stop>
        </linearGradient>
    </defs>
    <g id="Page-1" stroke="none" stroke-width="1" fill="none" fill-rule="evenodd">
        <g id="Menu-4" transform="translate(-61.000000, -241.000000)" fill="url(#linearGradient-1)">
            <g id="main" transform="translate(44.000000, 90.000000)">
                <g id="menu" transform="translate(0.000000, 30.000000)">
                    <g id="section-1" transform="translate(17.000000, 115.000000)">
                        <path d="M3.48165941e-13,6.9230957 C0.000813802084,9.25105794 1.73225911,10.4150391 5.19433594,10.4150391 C10.3874512,10.4150391 9.53833008,10.0795898 11.7443848,10.0795898 C13.9504395,10.0795898 17.5610352,10.4150391 21.0678711,10.4150391 C24.574707,10.4150391 28.6220703,10.0795898 32.40625,10.0795898 C36.1904297,10.0795898 47.1384277,10.7368164 51.7712402,10.7368164 C56.4040527,10.7368164 66.8339844,9.61682129 72.3452148,9.61682129 C77.8564453,9.61682129 96.0175781,9.61682129 96.5874023,9.61682129 C97.1572266,9.61682129 112.587158,9.73608398 108.593018,8.49682617 C105.930257,7.6706543 100.056071,7.26806641 90.970459,7.2890625 C84.149821,6.80110677 79.02889,6.67911784 75.607666,6.9230957 C70.4758301,7.2890625 55.0026855,7.93212891 50.703125,7.93212891 C46.4035645,7.93212891 38.2727051,6.9230957 32.8007813,6.9230957 C27.3288574,6.9230957 25.0102539,7.2890625 19.6064453,7.2890625 C14.2026367,7.2890625 13.6577148,6.9230957 10.0532227,6.9230957 C7.65022786,6.9230957 4.29915365,6.9230957 3.48165941e-13,6.9230957 Z" id="Path-2"></path>
                    </g>
                </g>
            </g>
        </g>
    </g>
</svg>